<svg xmlns="http://www.w3.org/2000/svg" width="30" height="30" viewBox="0 0 30 30">
    <g fill="#F0473E">
        <path d="M15.66 21.845c-7.44 0-10.065-8.653-10.693-11.306-.096-.406 0-.833.258-1.16.26-.326.653-.516 1.07-.515h2.011c.641.002 1.194.45 1.331 1.076.469 1.794 1.374 3.444 2.636 4.803v-2.946l-.543-.813c-.279-.419-.305-.957-.067-1.4.237-.444.7-.72 1.202-.72h3.499c.376 0 .681.305.681.681v4.247c1.299-1.263 2.414-2.701 3.315-4.273.245-.41.688-.658 1.165-.655h2.428c.503 0 .966.276 1.203.72.237.443.211.982-.068 1.4l-3.095 4.642 3.44 3.93c.352.403.437.975.216 1.462-.222.487-.707.8-1.242.8h-2.988c-.362.001-.71-.143-.964-.4l-2.528-2.527c-.242-.272-.544-.485-.882-.623v2.21c.002.367-.144.719-.405.976s-.615.398-.98.391zM6.293 10.227c.571 2.41 2.93 10.255 9.366 10.255h.01l.012-2.755c0-.18.072-.354.2-.482.271-.246.627-.378.993-.37.785.07 1.51.449 2.016 1.052l2.528 2.528h2.988l-3.784-4.324c-.203-.232-.225-.571-.054-.827l3.384-5.077h-2.428c-1.063 1.761-3.123 4.812-4.945 5.42-.208.07-.437.034-.615-.094s-.283-.334-.283-.553v-4.773h-2.817l.657.986c.074.112.114.243.114.378v4.773c0 .262-.15.5-.386.614-.236.114-.517.082-.721-.082-2.05-1.736-3.523-4.055-4.22-6.65l-2.015-.019z"/>
        <path d="M26.59 30H3.41C1.526 29.998.001 28.473 0 26.59V3.41C.002 1.526 1.527.001 3.41 0h23.18c1.883.002 3.408 1.527 3.41 3.41v23.18c-.002 1.883-1.527 3.408-3.41 3.41zM3.41 1.364c-1.13 0-2.045.916-2.046 2.045v23.182c0 1.13.916 2.044 2.045 2.045h23.182c1.13 0 2.044-.916 2.045-2.045V3.409c0-1.13-.916-2.044-2.045-2.045H3.409z"/>
    </g>
</svg>
