<svg xmlns="http://www.w3.org/2000/svg" width="30" height="30" viewBox="0 0 30 30">
    <g fill="#F0473E">
        <path d="M26.59 30H3.41C1.526 29.998.001 28.473 0 26.59V3.41C.002 1.526 1.527.001 3.41 0h23.18c1.883.002 3.408 1.527 3.41 3.41v23.18c-.002 1.883-1.527 3.408-3.41 3.41zM3.41 1.364c-1.13 0-2.045.916-2.046 2.045v23.182c0 1.13.916 2.044 2.045 2.045h23.182c1.13 0 2.044-.916 2.045-2.045V3.409c0-1.13-.916-2.044-2.045-2.045H3.409z"/>
        <path d="M18.41 25.91h-4.092c-.376 0-.682-.306-.682-.683v-8.182h-2.045c-.377 0-.682-.305-.682-.681v-4.091c0-.377.305-.682.682-.682h2.045V8.18c.003-2.258 1.833-4.088 4.091-4.09h3.41c.376 0 .681.305.681.682v4.09c0 .377-.305.682-.682.682h-2.045v2.046h2.045c.377 0 .682.305.682.682v4.09c0 .377-.305.682-.682.682h-2.045v8.182c0 .377-.305.682-.682.682zM15 24.544h2.727v-8.181c0-.377.306-.682.682-.682h2.046v-2.727h-2.046c-.376 0-.682-.306-.682-.682v-3.41c0-.376.306-.681.682-.681h2.046V5.455h-2.728c-1.505.001-2.725 1.221-2.727 2.727v4.09c0 .377-.305.683-.682.683h-2.045v2.727h2.045c.377 0 .682.305.682.682v8.181z"/>
    </g>
</svg>
